<svg xmlns="http://www.w3.org/2000/svg" version="1.1" xmlns:xlink="http://www.w3.org/1999/xlink" xmlns:svgjs="http://svgjs.com/svgjs" width="42" height="79"><svg width="42" height="79" viewBox="0 0 42 79" fill="none" xmlns="http://www.w3.org/2000/svg">
<path d="M24.864 54.128C23.2587 54.128 21.5413 53.904 19.712 53.456C17.8827 53.0453 16.0907 52.4667 14.336 51.72C12.6187 50.936 11.0693 50.0587 9.688 49.088C8.344 48.1173 7.336 47.072 6.664 45.952C6.36533 45.952 6.02933 45.9707 5.656 46.008C5.28267 46.0453 4.89067 46.064 4.48 46.064C4.032 46.064 3.472 45.9893 2.8 45.84C2.128 45.6907 1.53067 45.4293 1.008 45.056C0.485333 44.6827 0.224 44.1787 0.224 43.544C0.224 43.2453 0.429333 42.984 0.84 42.76C1.288 42.536 2.10933 42.424 3.304 42.424C5.61867 42.424 7.224 43.1333 8.12 44.552C9.352 44.7013 10.6587 44.8133 12.04 44.888C13.4213 44.9627 14.84 45 16.296 45C17.7893 45 19.2827 44.9627 20.776 44.888C22.3067 44.8133 23.8187 44.6827 25.312 44.496C24.4907 43.1893 23.5573 41.8827 22.512 40.576C21.504 39.2693 20.7013 38.2053 20.104 37.384C18.7227 35.5173 17.36 33.5947 16.016 31.616C14.672 29.6 13.384 27.3227 12.152 24.784C11.6667 23.8133 11.424 22.824 11.424 21.816C11.424 20.3227 11.8907 18.9227 12.824 17.616C13.7573 16.272 14.9333 15.04 16.352 13.92C17.7707 12.8 19.264 11.8293 20.832 11.008C22.4373 10.1493 23.8747 9.44 25.144 8.88C26.488 8.32 27.8507 7.89066 29.232 7.592C30.6133 7.256 31.9387 7.088 33.208 7.088C33.9547 7.088 34.664 7.144 35.336 7.256C36.2693 7.40533 37.1653 7.90933 38.024 8.768C38.92 9.58933 39.6667 10.5787 40.264 11.736C40.8613 12.856 41.16 13.976 41.16 15.096C41.16 16.1413 40.8987 17.3547 40.376 18.736C39.8907 20.08 39.256 21.4613 38.472 22.88C37.688 24.2613 36.848 25.568 35.952 26.8C35.056 27.9947 34.216 28.9653 33.432 29.712C32.6853 30.4587 32.088 30.832 31.64 30.832C31.0053 30.832 30.4267 30.496 29.904 29.824C29.4187 29.152 29.176 28.6293 29.176 28.256C29.176 28.032 29.232 27.9013 29.344 27.864C30.352 27.1173 31.416 26.1093 32.536 24.84C33.656 23.5707 34.6827 22.208 35.616 20.752C36.5867 19.2587 37.3707 17.8027 37.968 16.384C38.6027 14.928 38.92 13.6773 38.92 12.632C38.92 11.4373 38.472 10.6347 37.576 10.224C36.7173 9.776 35.6347 9.552 34.328 9.552C33.096 9.552 31.7893 9.75733 30.408 10.168C29.0267 10.5413 27.8133 10.9893 26.768 11.512C23.3707 13.192 20.7573 14.816 18.928 16.384C17.0987 17.9147 15.8293 19.352 15.12 20.696C14.448 22.04 14.112 23.272 14.112 24.392C14.112 25.5493 14.672 27.0987 15.792 29.04C16.912 30.944 18.816 33.52 21.504 36.768C22.512 38 23.5947 39.2507 24.752 40.52C25.9467 41.752 27.0293 42.9467 28 44.104C29.7547 43.8053 31.3787 43.432 32.872 42.984C34.4027 42.536 35.7467 42.0133 36.904 41.416C36.9413 41.3787 36.9973 41.36 37.072 41.36C37.184 41.36 37.24 41.416 37.24 41.528C37.24 41.8267 37.1093 42.0507 36.848 42.2C36.0267 42.7973 34.9253 43.3387 33.544 43.824C32.1627 44.3093 30.5947 44.7387 28.84 45.112C29.5867 46.008 30.184 46.8667 30.632 47.688C31.08 48.472 31.304 49.1813 31.304 49.816C31.304 51.3467 30.688 52.448 29.456 53.12C28.2613 53.792 26.7307 54.128 24.864 54.128ZM22.12 52.168C23.576 52.168 24.7707 51.9067 25.704 51.384C26.6747 50.8613 27.16 50.0587 27.16 48.976C27.16 48.528 27.048 48.024 26.824 47.464C26.6 46.8667 26.3013 46.2507 25.928 45.616C22.456 46.1387 18.872 46.4 15.176 46.4C13.0107 46.4 10.9387 46.288 8.96 46.064C9.856 47.2587 11.032 48.3227 12.488 49.256C13.9813 50.1893 15.568 50.9173 17.248 51.44C18.9653 51.9253 20.5893 52.168 22.12 52.168Z" fill="#EB3379"></path>
</svg><style>@media (prefers-color-scheme: light) { :root { filter: none; } }
</style></svg>